<svg width="51" height="75" viewBox="0 0 51 75" fill="none" xmlns="http://www.w3.org/2000/svg">
<path fill-rule="evenodd" clip-rule="evenodd" d="M0.542788 49.9131C-0.334664 64.5904 12.4282 74.8804 25.5101 74.8804C38.1931 74.8804 51.1154 66.5846 50.4773 49.9131C50.407 48.0753 50.2057 46.2753 49.8861 44.5C37.4436 32.0576 26.3028 43.6433 25.5505 44.4558C25.5215 44.4871 25.4971 44.5113 25.4644 44.5388C24.6161 45.2504 12.1114 55.3957 1.21572 44.5C0.878402 46.2337 0.655987 48.0196 0.542788 49.9131Z" fill="#5E1313"/>
<path fill-rule="evenodd" clip-rule="evenodd" d="M0.542788 49.9131C-0.334664 64.5904 12.4282 74.8804 25.5101 74.8804C38.1931 74.8804 51.1154 66.5846 50.4773 49.9131C50.407 48.0753 50.2057 46.2753 49.8861 44.5C37.4436 32.0576 26.3028 43.6433 25.5505 44.4558C25.5215 44.4871 25.4971 44.5113 25.4644 44.5388C24.6161 45.2504 12.1114 55.3957 1.21572 44.5C0.878402 46.2337 0.655987 48.0196 0.542788 49.9131Z" fill="black" fill-opacity="0.2"/>
<path d="M1.21572 44.5C12.1114 55.3957 24.6161 45.2504 25.4644 44.5388C25.4971 44.5113 25.5215 44.4871 25.5505 44.4558C26.3028 43.6433 37.4436 32.0576 49.8861 44.5C47.3711 30.534 37.524 18.1009 26.3803 0.852918C25.9784 0.230893 25.0561 0.250077 24.6714 0.882862C10.7174 23.8346 3.44877 33.0228 1.21572 44.5Z" fill="#5E1313"/>
<path d="M1.21572 44.5C12.1114 55.3957 24.6161 45.2504 25.4644 44.5388C25.4971 44.5113 25.5215 44.4871 25.5505 44.4558C26.3028 43.6433 37.4436 32.0576 49.8861 44.5C47.3711 30.534 37.524 18.1009 26.3803 0.852918C25.9784 0.230893 25.0561 0.250077 24.6714 0.882862C10.7174 23.8346 3.44877 33.0228 1.21572 44.5Z" fill="#5E1313"/>
<path d="M29.5021 32.5H21.504C20.9517 32.5 20.5 32.9477 20.5 33.5V41.5C20.5 42.0523 20.0523 42.5 19.5 42.5H11.5C10.9477 42.5 10.5 42.9477 10.5 43.5V52.3C10.5 52.8523 10.9477 53.3 11.5 53.3H19.5C20.0523 53.3 20.5 53.7477 20.5 54.3V61.5C20.5 62.0523 20.9477 62.5 21.5 62.5H29.5C30.0523 62.5 30.5 62.0523 30.5 61.5V54.3C30.5 53.7477 30.9477 53.3 31.5 53.3H39.5C40.0523 53.3 40.5 52.8523 40.5 52.3V43.5C40.5 42.9477 40.0523 42.5 39.5 42.5H31.5C30.9477 42.5 30.5 42.0523 30.5 41.5V33.5C30.5 32.9477 30.0544 32.5 29.5021 32.5Z" fill="white"/>
</svg>
