<svg width="113" height="125" viewBox="0 0 113 125" fill="none" xmlns="http://www.w3.org/2000/svg">
<rect width="113" height="125" rx="15" fill="#931F20"/>
<path d="M94.5154 79.7278C94.2956 78.5284 93.5202 77.5048 92.4253 76.9692C88.8828 75.2562 80.6949 71.3657 75.2074 69.4202C74.4014 69.1364 73.646 68.7245 72.9717 68.2009L66.6419 63.3814V60.7386C69.6731 58.2474 71.9955 55.0029 73.3785 51.3308C74.9556 50.8535 76.3378 49.8818 77.3202 48.5593C78.3033 47.2362 78.8347 45.6328 78.8369 43.9845V39.3684C78.8376 38.4664 78.5744 37.5843 78.0786 36.8302C77.5834 36.0768 76.8778 35.485 76.0489 35.1286V27.3184C76.0845 22.5566 73.8529 18.0614 70.0386 15.2103C66.2691 12.4033 61.6716 10.9322 56.973 11.0296C56.751 11.0076 56.5276 10.9976 56.305 11.0005C51.8369 11.0915 47.5062 12.5619 43.9066 15.2103C40.0923 18.0614 37.8607 22.5566 37.8962 27.3184V35.1285C37.0675 35.4856 36.3618 36.0768 35.8666 36.8309C35.3708 37.5842 35.1076 38.4663 35.1083 39.3684V43.9852C35.1104 45.6334 35.6418 47.2368 36.6249 48.5593C37.608 49.8824 38.9902 50.8542 40.5672 51.3308C41.9494 55.0029 44.2721 58.2473 47.3031 60.7386V63.3806L40.9741 68.2009C40.299 68.7245 39.5442 69.1363 38.7383 69.4202C33.2508 71.3658 25.063 75.2562 21.5204 76.9692C20.4256 77.5055 19.6501 78.5292 19.4298 79.7278L14 107.922C14.1181 108.712 14.4489 109.455 14.9582 110.07C15.6546 110.685 16.5559 111.016 17.4843 110.999H96.4616C97.3899 111.016 98.2905 110.685 98.9869 110.07C99.5005 109.454 99.8412 108.713 99.9743 107.922L94.5154 79.7278Z" fill="#4B0F0F"/>
<path d="M97.2172 81.1042C97.2172 81.1044 97.2169 81.1044 97.2168 81.1042C96.5004 79.4779 94.1008 77.7403 91.0905 76.1053C89.7972 75.4028 88.2565 76.3769 88.1505 77.8449C88.0573 79.1345 87.8955 80.5021 87.6358 81.9092C87.5054 82.6154 87.7507 83.3324 88.2093 83.8851C91.8941 88.3265 89.4337 95.3072 87.7111 100.146C87.4316 100.961 87.1561 101.731 86.9157 102.454C86.0378 105.148 84.8191 106.752 83.1809 107.393C82.6781 107.581 82.1502 107.682 81.5861 107.682C81.0394 107.682 80.4591 107.58 79.8506 107.385C79.2657 107.198 78.631 107.248 78.0237 107.339C77.4124 107.43 76.7653 107.32 76.1779 106.953C74.8063 106.101 74.3085 104.287 75.0949 102.898C75.8722 101.519 77.62 101.088 79.0048 101.95C79.4516 102.22 79.7892 102.599 80.0219 103.033C80.3593 103.663 80.777 104.37 81.4905 104.415C81.7125 104.429 81.9203 104.406 82.106 104.332C82.8049 104.062 83.4384 103.082 83.9845 101.405C84.2248 100.654 84.5044 99.8566 84.806 99.0182C87.1078 92.5123 88.5499 87.3489 84.5003 84.8338C80.4468 82.3281 76.8207 86.1489 72.5128 91.4124C71.9577 92.081 71.4298 92.7275 70.918 93.3181C70.1406 94.2113 69.2356 95.4852 69.3714 96.4428C69.4003 96.6375 69.4752 96.8301 69.5839 97.0186C69.9573 97.6662 70.8213 97.7013 71.568 97.7383C72.0081 97.7601 72.451 97.8897 72.8658 98.1512C74.2374 99.0128 74.7271 100.817 73.9488 102.197C73.1715 103.584 71.4238 104.011 70.0389 103.154C69.42 102.774 69.0033 102.192 68.7946 101.541C68.6217 101.001 68.3826 100.469 67.9826 100.067C67.0201 99.1001 66.458 98.0636 66.2951 96.9277C66.0377 95.118 66.7979 93.2217 68.615 91.1275C69.0997 90.5644 69.6156 89.9358 70.1526 89.2862C73.1137 85.6778 77.2945 80.5998 82.2297 80.803C83.4825 80.8546 84.7959 80.1626 84.9331 78.9162C85.1084 77.324 85.16 75.8275 85.1453 74.5066C85.1368 73.7386 84.6624 73.0571 83.953 72.7626C80.6068 71.3736 77.4336 70.2458 75.5347 69.5986C74.5261 69.2549 73.4448 69.788 72.9763 70.745C68.7514 79.3759 57.8045 87.2285 57.0487 87.7639C57.0203 87.784 56.9957 87.8022 56.9681 87.8235C56.8134 87.9429 56.2169 88.3994 55.4068 88.9697C54.0461 89.9275 52.5708 89.0824 53.5022 87.7035V87.7035C53.9551 87.0328 54.1248 85.5914 53.5004 85.0767C49.7277 81.9665 43.8717 76.5376 41.0399 70.7505C40.5712 69.7927 39.4892 69.2597 38.48 69.6042C36.5839 70.2514 33.4181 71.3778 30.075 72.7642C29.362 73.0599 28.8866 73.7452 28.8812 74.5171C28.8508 78.7913 29.4997 84.9537 32.7627 90.0507C33.2709 90.8445 34.3025 91.0366 35.2416 90.9561C36.213 90.873 37.2285 91.0989 38.1494 91.6673C40.4341 93.0921 41.2376 96.1071 39.9494 98.3979C38.6522 100.698 35.742 101.413 33.4573 99.9924C31.6677 98.8823 30.7987 96.8031 31.1307 94.8421C31.2551 94.1075 31.1802 93.3226 30.7478 92.7158C27.3864 87.9992 26.183 82.44 25.8496 77.8572C25.7428 76.388 24.1996 75.4132 22.9058 76.1175C19.9032 77.7519 17.5073 79.4877 16.7916 81.1118C14.6472 85.9777 14.1034 102.961 14.0144 110.007C14.0004 111.112 14.8954 112 16 112H98C99.1046 112 99.9996 111.112 99.9859 110.007C99.8984 102.96 99.362 85.9771 97.2176 81.1042C97.2175 81.104 97.2173 81.104 97.2172 81.1042V81.1042Z" fill="#F0F4F6"/>
</svg>
