<svg width="113" height="125" viewBox="0 0 113 125" fill="none" xmlns="http://www.w3.org/2000/svg">
<rect width="113" height="125" rx="15" fill="#931F20"/>
<path d="M94.5154 81.7278C94.2956 80.5284 93.5202 79.5048 92.4253 78.9692C88.8828 77.2562 80.6949 73.3657 75.2074 71.4202C74.4014 71.1364 73.646 70.7245 72.9717 70.2009L66.6419 65.3814V62.7386C69.6731 60.2474 71.9955 57.0029 73.3785 53.3308C74.9556 52.8535 76.3378 51.8818 77.3202 50.5593C78.3033 49.2362 78.8347 47.6328 78.8369 45.9845V41.3684C78.8376 40.4664 78.5744 39.5843 78.0786 38.8302C77.5834 38.0768 76.8778 37.485 76.0489 37.1286V29.3184C76.0845 24.5566 73.8529 20.0614 70.0386 17.2103C66.2691 14.4033 61.6716 12.9322 56.973 13.0296C56.751 13.0076 56.5276 12.9976 56.305 13.0005C51.8369 13.0915 47.5062 14.5619 43.9066 17.2103C40.0923 20.0614 37.8607 24.5566 37.8962 29.3184V37.1285C37.0675 37.4856 36.3618 38.0768 35.8666 38.8309C35.3708 39.5842 35.1076 40.4663 35.1083 41.3684V45.9852C35.1104 47.6334 35.6418 49.2368 36.6249 50.5593C37.608 51.8824 38.9902 52.8542 40.5672 53.3308C41.9494 57.0029 44.2721 60.2473 47.3031 62.7386V65.3806L40.9741 70.2009C40.299 70.7245 39.5442 71.1363 38.7383 71.4202C33.2508 73.3658 25.063 77.2562 21.5204 78.9692C20.4256 79.5055 19.6501 80.5292 19.4298 81.7278L14 109.922C14.1181 110.712 14.4489 111.455 14.9582 112.07C15.6546 112.685 16.5559 113.016 17.4843 112.999H96.4616C97.3899 113.016 98.2905 112.685 98.9869 112.07C99.5005 111.454 99.8412 110.713 99.9743 109.922L94.5154 81.7278Z" fill="#4B0F0F"/>
<path d="M96.0384 81.7321C95.7709 80.6243 95.02 79.6604 93.9554 79.0571C87.2063 75.1841 79.3776 73.6768 72.6065 69.2619C72.1895 68.9864 71.6443 68.9236 71.164 69.0956C70.6838 69.2682 70.3357 69.6509 70.2433 70.1089C68.9472 76.2835 65.1988 82.0253 60.7712 87.4936L59.8794 71.6952C59.8419 71.03 59.5228 70.4035 58.9869 69.9448C58.4511 69.486 57.74 69.2309 57.0008 69.2309C56.2624 69.2309 55.5513 69.486 55.0155 69.9448C54.4797 70.4035 54.1605 71.03 54.123 71.6952L53.2312 87.4936C48.8046 82.0253 45.0553 76.2833 43.7591 70.1097V70.109C43.6668 69.6509 43.3187 69.2683 42.8384 69.0956C42.3581 68.9237 41.8129 68.9864 41.3959 69.2619C34.6256 73.6769 26.7971 75.1841 20.047 79.0571C18.9816 79.6604 18.2314 80.6244 17.964 81.7321C15.7894 90.7832 14.4642 99.9814 14.002 109.234C13.9676 110.224 14.3798 111.183 15.1456 111.893C15.9114 112.603 16.9643 113.002 18.0625 113H95.9367C97.0357 113.002 98.0886 112.603 98.8544 111.893C99.6202 111.183 100.032 110.224 99.998 109.234C99.5357 99.9831 98.2106 90.7846 96.036 81.7321L96.0384 81.7321ZM88.2278 92.8873C88.2278 93.504 87.6732 94.0043 86.9887 94.0043H83.2192C83.0807 94.0043 82.954 94.0762 82.8938 94.1882C82.8327 94.3009 82.8492 94.4348 82.9352 94.5328C83.5555 95.2868 83.8027 96.2381 83.6165 97.1612C83.3897 98.2993 82.5433 99.2584 81.3637 99.7135C80.1849 100.169 78.8301 100.06 77.7591 99.4232C76.6875 98.7869 76.0429 97.708 76.0437 96.5516C76.0437 95.8215 76.3057 95.1105 76.7907 94.5257C76.8744 94.4277 76.8893 94.2953 76.8283 94.1839C76.7673 94.0733 76.6413 94.0035 76.5037 94.0042H72.7317C72.0465 94.0042 71.4919 93.5039 71.4919 92.8873V90.1932C71.4919 89.8965 71.6225 89.6125 71.8548 89.4032C72.0871 89.1939 72.4024 89.0763 72.7317 89.0763H86.9887C87.6731 89.0763 88.2277 89.5759 88.2277 90.1932L88.2278 92.8873Z" fill="#3E0808"/>
</svg>
