<svg width="113" height="125" viewBox="0 0 113 125" fill="none" xmlns="http://www.w3.org/2000/svg">
<path d="M0 15C0 6.71573 6.71573 0 15 0H98C106.284 0 113 6.71573 113 15V110C113 118.284 106.284 125 98 125H15C6.71573 125 0 118.284 0 110V15Z" fill="#931F20"/>
<path d="M94.5154 80.7278C94.2956 79.5284 93.5202 78.5048 92.4253 77.9692C88.8828 76.2562 80.6949 72.3657 75.2074 70.4202C74.4014 70.1364 73.646 69.7245 72.9717 69.2009L66.6419 64.3814V61.7386C69.6731 59.2474 71.9955 56.0029 73.3785 52.3308C74.9556 51.8535 76.3378 50.8818 77.3203 49.5593C78.3034 48.2362 78.8347 46.6328 78.8369 44.9845V40.3684C78.8376 39.4664 78.5744 38.5843 78.0786 37.8302C77.5834 37.0768 76.8778 36.485 76.0489 36.1286V28.3184C76.0845 23.5566 73.8529 19.0614 70.0386 16.2103C66.2691 13.4033 61.6716 11.9322 56.973 12.0296C56.751 12.0076 56.5276 11.9976 56.305 12.0005C51.8369 12.0915 47.5062 13.5619 43.9066 16.2103C40.0923 19.0614 37.8607 23.5566 37.8962 28.3184V36.1285C37.0675 36.4856 36.3618 37.0768 35.8666 37.8308C35.3708 38.5842 35.1076 39.4663 35.1083 40.3684V44.9852C35.1104 46.6334 35.6418 48.2368 36.6249 49.5593C37.608 50.8824 38.9902 51.8542 40.5672 52.3308C41.9494 56.0029 44.2721 59.2473 47.3031 61.7386V64.3806L40.9741 69.2009C40.299 69.7245 39.5442 70.1363 38.7383 70.4202C33.2508 72.3658 25.063 76.2562 21.5204 77.9692C20.4256 78.5055 19.6501 79.5292 19.4298 80.7278L14 108.922C14.1181 109.712 14.4489 110.455 14.9582 111.07C15.6546 111.685 16.5559 112.016 17.4843 111.999H96.4616C97.3899 112.016 98.2905 111.685 98.9869 111.07C99.5005 110.454 99.8412 109.713 99.9743 108.922L94.5154 80.7278Z" fill="#4B0F0F"/>
</svg>
