<svg width="86" height="101" viewBox="0 0 86 101" fill="none" xmlns="http://www.w3.org/2000/svg">
<path d="M80.5154 68.7278C80.2956 67.5284 79.5202 66.5048 78.4253 65.9692C74.8828 64.2562 66.6949 60.3657 61.2074 58.4202C60.4014 58.1364 59.646 57.7245 58.9717 57.2009L52.6419 52.3814V49.7386C55.6731 47.2474 57.9955 44.0029 59.3785 40.3308C60.9556 39.8535 62.3378 38.8818 63.3202 37.5593C64.3034 36.2362 64.8347 34.6328 64.8369 32.9845V28.3684C64.8376 27.4664 64.5744 26.5843 64.0786 25.8302C63.5834 25.0768 62.8778 24.485 62.0489 24.1286V16.3184C62.0845 11.5566 59.8529 7.06144 56.0386 4.21033C52.2691 1.40329 47.6716 -0.067787 42.973 0.0296416C42.751 0.00758997 42.5276 -0.00236962 42.305 0.000474937C37.8369 0.0915298 33.5062 1.56192 29.9066 4.2103C26.0923 7.06141 23.8607 11.5566 23.8962 16.3184V24.1285C23.0675 24.4856 22.3618 25.0768 21.8666 25.8309C21.3708 26.5842 21.1076 27.4663 21.1083 28.3684V32.9852C21.1104 34.6334 21.6418 36.2368 22.6249 37.5593C23.608 38.8824 24.9902 39.8542 26.5672 40.3308C27.9494 44.0029 30.2721 47.2473 33.3031 49.7386V52.3806L26.9741 57.2009C26.299 57.7245 25.5442 58.1363 24.7383 58.4202C19.2508 60.3658 11.063 64.2562 7.5204 65.9692C6.42561 66.5055 5.65013 67.5292 5.42978 68.7278L0 96.922C0.118087 97.7123 0.448864 98.455 0.958207 99.0703C1.65463 99.6849 2.55593 100.016 3.48425 99.9994H82.4616C83.3899 100.016 84.2905 99.6849 84.9869 99.0703C85.5005 98.4543 85.8412 97.713 85.9743 96.922L80.5154 68.7278Z" fill="#4B0F0F"/>
<path d="M83.2172 70.1042C83.2172 70.1044 83.2169 70.1044 83.2168 70.1042C82.5004 68.4779 80.1008 66.7403 77.0905 65.1053C75.7972 64.4028 74.2565 65.3769 74.1505 66.8449C74.0573 68.1345 73.8955 69.5021 73.6358 70.9092C73.5054 71.6154 73.7507 72.3324 74.2093 72.8851C77.8941 77.3265 75.4337 84.3072 73.7111 89.1457C73.4316 89.9609 73.1561 90.7308 72.9157 91.4543C72.0378 94.1477 70.8191 95.7518 69.1809 96.393C68.6781 96.5807 68.1502 96.6819 67.5861 96.6819C67.0394 96.6819 66.4591 96.5803 65.8506 96.3853C65.2657 96.1979 64.631 96.2478 64.0237 96.3386C63.4124 96.43 62.7653 96.3197 62.1779 95.9532C60.8063 95.1011 60.3085 93.2872 61.0949 91.8981C61.8722 90.5187 63.62 90.0885 65.0048 90.9501C65.4516 91.2202 65.7892 91.5988 66.0219 92.0332C66.3593 92.6634 66.777 93.37 67.4905 93.4153C67.7125 93.4293 67.9203 93.4061 68.106 93.3324C68.8049 93.0624 69.4384 92.0817 69.9845 90.4048C70.2248 89.6539 70.5044 88.8566 70.806 88.0182C73.1078 81.5123 74.5499 76.3489 70.5004 73.8338C66.4468 71.3281 62.8207 75.1489 58.5128 80.4124C57.9577 81.081 57.4298 81.7275 56.918 82.3181C56.1406 83.2113 55.2356 84.4852 55.3714 85.4428C55.4003 85.6375 55.4752 85.8301 55.5839 86.0186C55.9573 86.6662 56.8213 86.7013 57.568 86.7383C58.0081 86.7601 58.451 86.8897 58.8658 87.1512C60.2374 88.0128 60.7271 89.8173 59.9488 91.1966C59.1715 92.5844 57.4238 93.0105 56.0389 92.1542C55.42 91.7737 55.0033 91.1923 54.7946 90.541C54.6217 90.0011 54.3826 89.4686 53.9826 89.0669C53.0201 88.1001 52.458 87.0636 52.2951 85.9277C52.0377 84.118 52.7979 82.2217 54.615 80.1275C55.0997 79.5644 55.6156 78.9358 56.1526 78.2862C59.1137 74.6778 63.2945 69.5998 68.2297 69.803C69.4825 69.8546 70.7959 69.1626 70.9331 67.9162C71.1084 66.324 71.16 64.8275 71.1453 63.5066C71.1368 62.7386 70.6624 62.0571 69.953 61.7626C66.6068 60.3736 63.4336 59.2458 61.5347 58.5986C60.5261 58.2549 59.4448 58.788 58.9763 59.745C54.7514 68.3759 43.8045 76.2285 43.0487 76.7639C43.0203 76.784 42.9957 76.8022 42.9681 76.8235C42.8134 76.9429 42.2169 77.3994 41.4068 77.9697C40.0461 78.9275 38.5708 78.0824 39.5022 76.7035C39.9551 76.0328 40.1248 74.5914 39.5004 74.0767C35.7277 70.9665 29.8717 65.5376 27.0399 59.7505C26.5712 58.7927 25.4892 58.2597 24.48 58.6042C22.5839 59.2514 19.4181 60.3778 16.075 61.7642C15.362 62.0599 14.8866 62.7452 14.8812 63.5171C14.8508 67.7913 15.4997 73.9537 18.7627 79.0507C19.2709 79.8445 20.3025 80.0366 21.2416 79.9561C22.213 79.873 23.2285 80.0989 24.1494 80.6673C26.4341 82.0921 27.2376 85.1071 25.9494 87.3979C24.6522 89.698 21.742 90.413 19.4573 88.9924C17.6677 87.8823 16.7987 85.8031 17.1307 83.8421C17.2551 83.1075 17.1802 82.3226 16.7478 81.7158C13.3864 76.9992 12.183 71.44 11.8496 66.8572C11.7428 65.388 10.1996 64.4132 8.90576 65.1175C5.9032 66.7519 3.50726 68.4877 2.79158 70.1118C0.647227 74.9777 0.103356 91.9607 0.0143886 99.0073C0.000443711 100.112 0.895431 101 2 101H84C85.1046 101 85.9996 100.112 85.9859 99.0073C85.8984 91.9603 85.362 74.9771 83.2176 70.1042C83.2175 70.104 83.2173 70.104 83.2172 70.1042Z" fill="#F0F4F6"/>
</svg>
