<svg width="86" height="100" viewBox="0 0 86 100" fill="none" xmlns="http://www.w3.org/2000/svg">
<path d="M80.5154 68.7278C80.2956 67.5284 79.5202 66.5048 78.4253 65.9692C74.8828 64.2562 66.6949 60.3657 61.2074 58.4202C60.4014 58.1364 59.646 57.7245 58.9717 57.2009L52.6419 52.3814V49.7386C55.6731 47.2474 57.9955 44.0029 59.3785 40.3308C60.9556 39.8535 62.3378 38.8818 63.3202 37.5593C64.3034 36.2362 64.8347 34.6328 64.8369 32.9845V28.3684C64.8376 27.4664 64.5744 26.5843 64.0786 25.8302C63.5834 25.0768 62.8778 24.485 62.0489 24.1286V16.3184C62.0845 11.5566 59.8529 7.06144 56.0386 4.21033C52.2691 1.40329 47.6716 -0.067787 42.973 0.0296416C42.751 0.00758997 42.5276 -0.00236962 42.305 0.000474937C37.8369 0.0915298 33.5062 1.56192 29.9066 4.2103C26.0923 7.06141 23.8607 11.5566 23.8962 16.3184V24.1285C23.0675 24.4856 22.3618 25.0768 21.8666 25.8309C21.3708 26.5842 21.1076 27.4663 21.1083 28.3684V32.9852C21.1104 34.6334 21.6418 36.2368 22.6249 37.5593C23.608 38.8824 24.9902 39.8542 26.5672 40.3308C27.9494 44.0029 30.2721 47.2473 33.3031 49.7386V52.3806L26.9741 57.2009C26.299 57.7245 25.5442 58.1363 24.7383 58.4202C19.2508 60.3658 11.063 64.2562 7.5204 65.9692C6.42561 66.5055 5.65013 67.5292 5.42978 68.7278L0 96.922C0.118087 97.7123 0.448864 98.455 0.958207 99.0703C1.65463 99.6849 2.55593 100.016 3.48425 99.9994H82.4616C83.3899 100.016 84.2905 99.6849 84.9869 99.0703C85.5005 98.4543 85.8412 97.713 85.9743 96.922L80.5154 68.7278Z" fill="#4B0F0F"/>
<path d="M82.0384 68.7321C81.7709 67.6243 81.02 66.6604 79.9554 66.0571C73.2063 62.1841 65.3776 60.6768 58.6065 56.2619C58.1895 55.9864 57.6443 55.9236 57.164 56.0956C56.6838 56.2682 56.3357 56.6509 56.2433 57.1089C54.9472 63.2835 51.1988 69.0253 46.7712 74.4936L45.8794 58.6952C45.8419 58.03 45.5228 57.4035 44.9869 56.9448C44.4511 56.486 43.74 56.2309 43.0008 56.2309C42.2624 56.2309 41.5513 56.486 41.0155 56.9448C40.4797 57.4035 40.1605 58.03 40.123 58.6952L39.2312 74.4936C34.8046 69.0253 31.0553 63.2833 29.7591 57.1097V57.109C29.6668 56.6509 29.3187 56.2683 28.8384 56.0956C28.3581 55.9237 27.8129 55.9864 27.3959 56.2619C20.6256 60.6769 12.7971 62.1841 6.04702 66.0571C4.98161 66.6604 4.23145 67.6244 3.96399 68.7321C1.78945 77.7832 0.464177 86.9814 0.00199463 96.2342C-0.0324248 97.2236 0.379813 98.1834 1.14562 98.8929C1.91142 99.6033 2.96431 100.002 4.0625 100H81.9367C83.0358 100.002 84.0886 99.6033 84.8544 98.8929C85.6202 98.1833 86.0324 97.2235 85.998 96.2342C85.5357 86.9831 84.2106 77.7846 82.036 68.7321L82.0384 68.7321ZM74.2278 79.8873C74.2278 80.504 73.6732 81.0043 72.9887 81.0043H69.2192C69.0807 81.0043 68.954 81.0762 68.8938 81.1882C68.8327 81.3009 68.8492 81.4348 68.9352 81.5328C69.5555 82.2868 69.8027 83.2381 69.6165 84.1612C69.3897 85.2993 68.5433 86.2584 67.3637 86.7135C66.1849 87.1688 64.8301 87.0595 63.7591 86.4232C62.6875 85.7869 62.0429 84.708 62.0437 83.5516C62.0437 82.8215 62.3057 82.1105 62.7907 81.5257C62.8744 81.4277 62.8893 81.2953 62.8283 81.1839C62.7673 81.0733 62.6413 81.0035 62.5037 81.0042H58.7317C58.0465 81.0042 57.4919 80.5039 57.4919 79.8873V77.1932C57.4919 76.8965 57.6225 76.6125 57.8548 76.4032C58.0871 76.1939 58.4024 76.0763 58.7317 76.0763H72.9887C73.6731 76.0763 74.2277 76.5759 74.2277 77.1932L74.2278 79.8873Z" fill="#3E0808"/>
</svg>
