<svg width="87" height="100" viewBox="0 0 87 100" fill="none" xmlns="http://www.w3.org/2000/svg">
<path d="M80.9561 68.7278C80.7363 67.5284 79.9609 66.5048 78.866 65.9692C75.3234 64.2562 67.1356 60.3657 61.6481 58.4202C60.8421 58.1364 60.0866 57.7245 59.4123 57.2009L53.0826 52.3814V49.7386C56.1138 47.2474 58.4362 44.0029 59.8192 40.3308C61.3963 39.8535 62.7784 38.8818 63.7609 37.5593C64.744 36.2362 65.2754 34.6328 65.2775 32.9845V28.3684C65.2783 27.4664 65.0151 26.5843 64.5192 25.8302C64.0241 25.0768 63.3184 24.485 62.4896 24.1286V16.3184C62.5252 11.5566 60.2936 7.06144 56.4793 4.21033C52.7098 1.40329 48.1122 -0.067787 43.4136 0.0296416C43.1917 0.00758997 42.9683 -0.00236962 42.7457 0.000474937C38.2776 0.0915298 33.9468 1.56192 30.3473 4.2103C26.533 7.06141 24.3014 11.5566 24.3369 16.3184V24.1285C23.5082 24.4856 22.8025 25.0768 22.3073 25.8309C21.8115 26.5842 21.5483 27.4663 21.549 28.3684V32.9852C21.5511 34.6334 22.0825 36.2368 23.0656 37.5593C24.0487 38.8824 25.4308 39.8542 27.0079 40.3308C28.3901 44.0029 30.7128 47.2473 33.7438 49.7386V52.3806L27.4148 57.2009C26.7397 57.7245 25.9849 58.1363 25.179 58.4202C19.6915 60.3658 11.5037 64.2562 7.96107 65.9692C6.86629 66.5055 6.09081 67.5292 5.87045 68.7278L0.440674 96.922C0.558761 97.7123 0.889538 98.455 1.39888 99.0703C2.0953 99.6849 2.9966 100.016 3.92492 99.9994H82.9022C83.8306 100.016 84.7312 99.6849 85.4275 99.0703C85.9411 98.4543 86.2819 97.713 86.4149 96.922L80.9561 68.7278Z" fill="#4B0F0F"/>
</svg>
